<svg width="357" height="57" viewBox="0 0 357 57" fill="none" xmlns="http://www.w3.org/2000/svg">
<g filter="url(#filter0_i_0_1)">
<g filter="url(#filter1_d_0_1)">
<path d="M110.491 24.5664H104.425C104.314 23.7816 104.088 23.0845 103.746 22.4751C103.405 21.8565 102.966 21.3303 102.431 20.8963C101.895 20.4624 101.277 20.13 100.575 19.8991C99.8825 19.6683 99.13 19.5529 98.3175 19.5529C96.8494 19.5529 95.5707 19.9176 94.4812 20.647C93.3917 21.3672 92.5469 22.4197 91.9467 23.8047C91.3466 25.1804 91.0465 26.8516 91.0465 28.8182C91.0465 30.8402 91.3466 32.5391 91.9467 33.9148C92.5561 35.2905 93.4055 36.3292 94.495 37.0309C95.5845 37.7326 96.8448 38.0835 98.2759 38.0835C99.0792 38.0835 99.8224 37.9773 100.506 37.7649C101.198 37.5526 101.812 37.2433 102.348 36.837C102.883 36.4215 103.326 35.9183 103.677 35.3274C104.037 34.7365 104.287 34.0625 104.425 33.3054L110.491 33.3331C110.334 34.6349 109.942 35.8906 109.314 37.1001C108.695 38.3004 107.86 39.3761 106.807 40.3271C105.764 41.2688 104.517 42.0167 103.068 42.5707C101.627 43.1154 99.9979 43.3878 98.179 43.3878C95.6491 43.3878 93.3871 42.8153 91.3928 41.6705C89.4077 40.5256 87.8381 38.8683 86.6839 36.6985C85.5391 34.5288 84.9666 31.902 84.9666 28.8182C84.9666 25.7251 85.5483 23.0938 86.7116 20.924C87.875 18.7543 89.4538 17.1016 91.4482 15.9659C93.4425 14.821 95.6861 14.2486 98.179 14.2486C99.8224 14.2486 101.346 14.4794 102.749 14.9411C104.162 15.4027 105.413 16.0767 106.502 16.9631C107.592 17.8402 108.478 18.9158 109.162 20.19C109.854 21.4641 110.297 22.9229 110.491 24.5664ZM120.747 43.4016C119.389 43.4016 118.18 43.1662 117.118 42.6953C116.056 42.2152 115.216 41.5089 114.597 40.5763C113.988 39.6346 113.683 38.462 113.683 37.0586C113.683 35.8768 113.9 34.8842 114.334 34.081C114.768 33.2777 115.359 32.6314 116.107 32.142C116.855 31.6527 117.704 31.2834 118.655 31.0341C119.616 30.7848 120.622 30.6094 121.675 30.5078C122.912 30.3786 123.909 30.2585 124.666 30.1477C125.423 30.0277 125.972 29.8523 126.314 29.6214C126.656 29.3906 126.827 29.049 126.827 28.5966V28.5135C126.827 27.6364 126.55 26.9577 125.996 26.4776C125.451 25.9975 124.675 25.7575 123.669 25.7575C122.607 25.7575 121.762 25.9929 121.134 26.4638C120.507 26.9254 120.091 27.5071 119.888 28.2088L114.431 27.7656C114.708 26.473 115.253 25.3558 116.066 24.4141C116.878 23.4631 117.926 22.7337 119.209 22.2259C120.502 21.7088 121.998 21.4503 123.697 21.4503C124.878 21.4503 126.009 21.5888 127.09 21.8658C128.179 22.1428 129.144 22.5721 129.984 23.1538C130.834 23.7354 131.503 24.4833 131.992 25.3974C132.482 26.3022 132.726 27.3871 132.726 28.652V43H127.131V40.0501H126.965C126.623 40.7148 126.166 41.3011 125.594 41.8089C125.021 42.3075 124.334 42.6999 123.53 42.9862C122.727 43.2631 121.799 43.4016 120.747 43.4016ZM122.436 39.3299C123.304 39.3299 124.07 39.1591 124.735 38.8175C125.4 38.4666 125.922 37.9957 126.3 37.4048C126.679 36.8139 126.868 36.1445 126.868 35.3967V33.1392C126.683 33.2592 126.43 33.37 126.106 33.4716C125.792 33.5639 125.437 33.6516 125.04 33.7347C124.643 33.8086 124.246 33.8778 123.849 33.9425C123.452 33.9979 123.092 34.0487 122.769 34.0948C122.076 34.1964 121.471 34.358 120.954 34.5795C120.437 34.8011 120.036 35.1012 119.749 35.4798C119.463 35.8491 119.32 36.3107 119.32 36.8647C119.32 37.668 119.611 38.282 120.193 38.7067C120.784 39.1222 121.531 39.3299 122.436 39.3299ZM143.203 14.6364V43H137.304V14.6364H143.203ZM147.93 43V21.7273H153.829V43H147.93ZM150.893 18.9851C150.016 18.9851 149.264 18.6942 148.636 18.1126C148.017 17.5217 147.708 16.8153 147.708 15.9936C147.708 15.1811 148.017 14.484 148.636 13.9023C149.264 13.3114 150.016 13.016 150.893 13.016C151.771 13.016 152.518 13.3114 153.137 13.9023C153.765 14.484 154.079 15.1811 154.079 15.9936C154.079 16.8153 153.765 17.5217 153.137 18.1126C152.518 18.6942 151.771 18.9851 150.893 18.9851ZM169.995 21.7273V26.1591H156.866V21.7273H169.995ZM159.871 43V20.19C159.871 18.6481 160.171 17.3693 160.771 16.3537C161.381 15.3381 162.212 14.5763 163.264 14.0685C164.317 13.5607 165.513 13.3068 166.851 13.3068C167.756 13.3068 168.583 13.3761 169.33 13.5146C170.088 13.6531 170.651 13.7777 171.02 13.8885L169.968 18.3203C169.737 18.2464 169.45 18.1772 169.109 18.1126C168.776 18.0479 168.435 18.0156 168.084 18.0156C167.216 18.0156 166.611 18.2188 166.27 18.625C165.928 19.022 165.757 19.5806 165.757 20.3008V43H159.871ZM173.6 43V21.7273H179.499V43H173.6ZM176.563 18.9851C175.686 18.9851 174.934 18.6942 174.306 18.1126C173.687 17.5217 173.378 16.8153 173.378 15.9936C173.378 15.1811 173.687 14.484 174.306 13.9023C174.934 13.3114 175.686 13.016 176.563 13.016C177.44 13.016 178.188 13.3114 178.807 13.9023C179.435 14.484 179.749 15.1811 179.749 15.9936C179.749 16.8153 179.435 17.5217 178.807 18.1126C178.188 18.6942 177.44 18.9851 176.563 18.9851ZM193.837 43.4155C191.658 43.4155 189.784 42.9538 188.214 42.0305C186.654 41.098 185.453 39.8054 184.613 38.1527C183.782 36.5 183.367 34.598 183.367 32.4467C183.367 30.2678 183.787 28.3565 184.627 26.7131C185.477 25.0604 186.681 23.7724 188.242 22.8491C189.802 21.9165 191.658 21.4503 193.809 21.4503C195.665 21.4503 197.29 21.7873 198.684 22.4613C200.078 23.1353 201.182 24.0817 201.994 25.3004C202.807 26.5192 203.255 27.9503 203.338 29.5938H197.77C197.613 28.532 197.198 27.6779 196.524 27.0316C195.859 26.3761 194.987 26.0483 193.906 26.0483C192.992 26.0483 192.194 26.2976 191.51 26.7962C190.836 27.2855 190.31 28.0011 189.931 28.9428C189.553 29.8846 189.364 31.0249 189.364 32.3636C189.364 33.7209 189.548 34.875 189.918 35.826C190.296 36.777 190.827 37.5018 191.51 38.0004C192.194 38.4989 192.992 38.7482 193.906 38.7482C194.58 38.7482 195.185 38.6097 195.721 38.3327C196.265 38.0558 196.713 37.6541 197.064 37.1278C197.424 36.5923 197.659 35.9506 197.77 35.2028H203.338C203.245 36.8278 202.802 38.2589 202.008 39.4961C201.223 40.7241 200.138 41.6843 198.754 42.3768C197.369 43.0692 195.73 43.4155 193.837 43.4155ZM213.181 43.4016C211.824 43.4016 210.614 43.1662 209.553 42.6953C208.491 42.2152 207.651 41.5089 207.032 40.5763C206.423 39.6346 206.118 38.462 206.118 37.0586C206.118 35.8768 206.335 34.8842 206.769 34.081C207.203 33.2777 207.794 32.6314 208.542 32.142C209.29 31.6527 210.139 31.2834 211.09 31.0341C212.05 30.7848 213.057 30.6094 214.109 30.5078C215.346 30.3786 216.343 30.2585 217.101 30.1477C217.858 30.0277 218.407 29.8523 218.749 29.6214C219.09 29.3906 219.261 29.049 219.261 28.5966V28.5135C219.261 27.6364 218.984 26.9577 218.43 26.4776C217.885 25.9975 217.11 25.7575 216.103 25.7575C215.042 25.7575 214.197 25.9929 213.569 26.4638C212.941 26.9254 212.526 27.5071 212.323 28.2088L206.866 27.7656C207.143 26.473 207.688 25.3558 208.5 24.4141C209.313 23.4631 210.361 22.7337 211.644 22.2259C212.937 21.7088 214.432 21.4503 216.131 21.4503C217.313 21.4503 218.444 21.5888 219.524 21.8658C220.614 22.1428 221.579 22.5721 222.419 23.1538C223.268 23.7354 223.938 24.4833 224.427 25.3974C224.916 26.3022 225.161 27.3871 225.161 28.652V43H219.566V40.0501H219.4C219.058 40.7148 218.601 41.3011 218.028 41.8089C217.456 42.3075 216.768 42.6999 215.965 42.9862C215.162 43.2631 214.234 43.4016 213.181 43.4016ZM214.871 39.3299C215.739 39.3299 216.505 39.1591 217.17 38.8175C217.835 38.4666 218.356 37.9957 218.735 37.4048C219.113 36.8139 219.303 36.1445 219.303 35.3967V33.1392C219.118 33.2592 218.864 33.37 218.541 33.4716C218.227 33.5639 217.872 33.6516 217.475 33.7347C217.078 33.8086 216.68 33.8778 216.283 33.9425C215.886 33.9979 215.526 34.0487 215.203 34.0948C214.511 34.1964 213.906 34.358 213.389 34.5795C212.872 34.8011 212.47 35.1012 212.184 35.4798C211.898 35.8491 211.755 36.3107 211.755 36.8647C211.755 37.668 212.046 38.282 212.627 38.7067C213.218 39.1222 213.966 39.3299 214.871 39.3299ZM239.35 43.4155C237.171 43.4155 235.296 42.9538 233.727 42.0305C232.166 41.098 230.966 39.8054 230.126 38.1527C229.295 36.5 228.88 34.598 228.88 32.4467C228.88 30.2678 229.3 28.3565 230.14 26.7131C230.989 25.0604 232.194 23.7724 233.755 22.8491C235.315 21.9165 237.171 21.4503 239.322 21.4503C241.178 21.4503 242.803 21.7873 244.197 22.4613C245.591 23.1353 246.695 24.0817 247.507 25.3004C248.32 26.5192 248.767 27.9503 248.85 29.5938H243.283C243.126 28.532 242.71 27.6779 242.036 27.0316C241.372 26.3761 240.499 26.0483 239.419 26.0483C238.505 26.0483 237.706 26.2976 237.023 26.7962C236.349 27.2855 235.823 28.0011 235.444 28.9428C235.066 29.8846 234.876 31.0249 234.876 32.3636C234.876 33.7209 235.061 34.875 235.43 35.826C235.809 36.777 236.34 37.5018 237.023 38.0004C237.706 38.4989 238.505 38.7482 239.419 38.7482C240.093 38.7482 240.698 38.6097 241.233 38.3327C241.778 38.0558 242.226 37.6541 242.577 37.1278C242.937 36.5923 243.172 35.9506 243.283 35.2028H248.85C248.758 36.8278 248.315 38.2589 247.521 39.4961C246.736 40.7241 245.651 41.6843 244.266 42.3768C242.881 43.0692 241.242 43.4155 239.35 43.4155ZM252.628 43V21.7273H258.528V43H252.628ZM255.592 18.9851C254.714 18.9851 253.962 18.6942 253.334 18.1126C252.716 17.5217 252.406 16.8153 252.406 15.9936C252.406 15.1811 252.716 14.484 253.334 13.9023C253.962 13.3114 254.714 13.016 255.592 13.016C256.469 13.016 257.217 13.3114 257.835 13.9023C258.463 14.484 258.777 15.1811 258.777 15.9936C258.777 16.8153 258.463 17.5217 257.835 18.1126C257.217 18.6942 256.469 18.9851 255.592 18.9851ZM272.865 43.4155C270.714 43.4155 268.854 42.9585 267.284 42.0444C265.724 41.1211 264.519 39.8377 263.669 38.1942C262.82 36.5415 262.395 34.6257 262.395 32.4467C262.395 30.2493 262.82 28.3288 263.669 26.6854C264.519 25.0327 265.724 23.7493 267.284 22.8352C268.854 21.9119 270.714 21.4503 272.865 21.4503C275.017 21.4503 276.872 21.9119 278.433 22.8352C280.002 23.7493 281.212 25.0327 282.061 26.6854C282.911 28.3288 283.335 30.2493 283.335 32.4467C283.335 34.6257 282.911 36.5415 282.061 38.1942C281.212 39.8377 280.002 41.1211 278.433 42.0444C276.872 42.9585 275.017 43.4155 272.865 43.4155ZM272.893 38.8452C273.872 38.8452 274.689 38.5682 275.344 38.0142C276 37.451 276.494 36.6847 276.826 35.7152C277.168 34.7457 277.339 33.6424 277.339 32.4052C277.339 31.168 277.168 30.0646 276.826 29.0952C276.494 28.1257 276 27.3594 275.344 26.7962C274.689 26.233 273.872 25.9513 272.893 25.9513C271.905 25.9513 271.074 26.233 270.4 26.7962C269.735 27.3594 269.232 28.1257 268.891 29.0952C268.558 30.0646 268.392 31.168 268.392 32.4052C268.392 33.6424 268.558 34.7457 268.891 35.7152C269.232 36.6847 269.735 37.451 270.4 38.0142C271.074 38.5682 271.905 38.8452 272.893 38.8452ZM293.072 30.7017V43H287.172V21.7273H292.795V25.4805H293.044C293.515 24.2433 294.304 23.2646 295.412 22.5444C296.52 21.815 297.864 21.4503 299.442 21.4503C300.92 21.4503 302.208 21.7734 303.306 22.4197C304.405 23.0661 305.259 23.9893 305.869 25.1896C306.478 26.3807 306.783 27.8026 306.783 29.4553V43H300.883V30.5078C300.892 29.206 300.56 28.1903 299.886 27.4609C299.212 26.7223 298.284 26.353 297.102 26.353C296.308 26.353 295.606 26.5238 294.997 26.8654C294.397 27.207 293.926 27.7056 293.584 28.3612C293.252 29.0075 293.081 29.7876 293.072 30.7017ZM321.127 43.4155C318.939 43.4155 317.055 42.9723 315.477 42.0859C313.907 41.1903 312.697 39.9254 311.848 38.2912C310.999 36.6477 310.574 34.7042 310.574 32.4606C310.574 30.2724 310.999 28.3519 311.848 26.6992C312.697 25.0465 313.893 23.7585 315.435 22.8352C316.986 21.9119 318.805 21.4503 320.892 21.4503C322.295 21.4503 323.602 21.6765 324.811 22.1289C326.03 22.5721 327.092 23.2415 327.996 24.1371C328.911 25.0327 329.621 26.1591 330.129 27.5163C330.637 28.8643 330.891 30.4432 330.891 32.2528V33.8732H312.928V30.217H325.337C325.337 29.3675 325.153 28.6151 324.783 27.9595C324.414 27.304 323.902 26.7915 323.246 26.4222C322.6 26.0437 321.847 25.8544 320.989 25.8544C320.093 25.8544 319.299 26.0621 318.607 26.4776C317.923 26.8839 317.388 27.4332 317 28.1257C316.612 28.8089 316.414 29.5707 316.404 30.4109V33.8871C316.404 34.9396 316.598 35.8491 316.986 36.6154C317.383 37.3817 317.942 37.9727 318.662 38.3881C319.382 38.8036 320.236 39.0114 321.224 39.0114C321.88 39.0114 322.48 38.919 323.025 38.7344C323.569 38.5497 324.036 38.2727 324.423 37.9034C324.811 37.5341 325.107 37.0817 325.31 36.5462L330.766 36.9062C330.489 38.2173 329.922 39.3622 329.063 40.3409C328.213 41.3104 327.115 42.0675 325.767 42.6122C324.428 43.1477 322.881 43.4155 321.127 43.4155ZM352.441 27.7933L347.039 28.1257C346.947 27.6641 346.749 27.2486 346.444 26.8793C346.139 26.5007 345.738 26.2006 345.239 25.979C344.75 25.7482 344.163 25.6328 343.48 25.6328C342.566 25.6328 341.795 25.8267 341.167 26.2145C340.539 26.593 340.225 27.1009 340.225 27.7379C340.225 28.2457 340.429 28.6751 340.835 29.0259C341.241 29.3768 341.938 29.6584 342.926 29.8707L346.776 30.6463C348.844 31.071 350.386 31.7543 351.402 32.696C352.418 33.6378 352.925 34.875 352.925 36.4077C352.925 37.8018 352.515 39.0252 351.693 40.0778C350.88 41.1303 349.763 41.9521 348.341 42.543C346.929 43.1246 345.299 43.4155 343.452 43.4155C340.636 43.4155 338.393 42.8292 336.722 41.6566C335.06 40.4748 334.086 38.8683 333.799 36.837L339.602 36.5323C339.778 37.391 340.202 38.0465 340.876 38.4989C341.55 38.9421 342.414 39.1637 343.466 39.1637C344.5 39.1637 345.331 38.9652 345.959 38.5682C346.596 38.1619 346.919 37.6403 346.929 37.0032C346.919 36.4677 346.693 36.0291 346.25 35.6875C345.807 35.3366 345.124 35.0689 344.2 34.8842L340.516 34.1502C338.439 33.7347 336.892 33.0146 335.877 31.9897C334.87 30.9648 334.367 29.6584 334.367 28.0703C334.367 26.7038 334.737 25.5266 335.475 24.5387C336.223 23.5508 337.271 22.7891 338.619 22.2536C339.976 21.718 341.564 21.4503 343.383 21.4503C346.07 21.4503 348.184 22.0181 349.726 23.1538C351.277 24.2894 352.182 25.8359 352.441 27.7933Z" fill="black"/>
</g>
</g>
<rect width="71" height="57" fill="#2CAEBA"/>
<path d="M47.4911 24.5664H41.4251C41.3143 23.7816 41.0881 23.0845 40.7464 22.4751C40.4048 21.8565 39.9663 21.3303 39.4308 20.8963C38.8952 20.4624 38.2766 20.13 37.5749 19.8991C36.8825 19.6683 36.13 19.5529 35.3175 19.5529C33.8494 19.5529 32.5707 19.9176 31.4812 20.647C30.3917 21.3672 29.5469 22.4197 28.9467 23.8047C28.3466 25.1804 28.0465 26.8516 28.0465 28.8182C28.0465 30.8402 28.3466 32.5391 28.9467 33.9148C29.5561 35.2905 30.4055 36.3292 31.495 37.0309C32.5845 37.7326 33.8448 38.0835 35.2759 38.0835C36.0792 38.0835 36.8224 37.9773 37.5057 37.7649C38.1982 37.5526 38.8121 37.2433 39.3477 36.837C39.8832 36.4215 40.3264 35.9183 40.6772 35.3274C41.0373 34.7365 41.2866 34.0625 41.4251 33.3054L47.4911 33.3331C47.3342 34.6349 46.9418 35.8906 46.3139 37.1001C45.6953 38.3004 44.8597 39.3761 43.8072 40.3271C42.7638 41.2688 41.5174 42.0167 40.0678 42.5707C38.6275 43.1154 36.9979 43.3878 35.179 43.3878C32.6491 43.3878 30.3871 42.8153 28.3928 41.6705C26.4077 40.5256 24.8381 38.8683 23.6839 36.6985C22.5391 34.5288 21.9666 31.902 21.9666 28.8182C21.9666 25.7251 22.5483 23.0938 23.7116 20.924C24.875 18.7543 26.4538 17.1016 28.4482 15.9659C30.4425 14.821 32.6861 14.2486 35.179 14.2486C36.8224 14.2486 38.3459 14.4794 39.7493 14.9411C41.1619 15.4027 42.413 16.0767 43.5025 16.9631C44.592 17.8402 45.4783 18.9158 46.1616 20.19C46.854 21.4641 47.2972 22.9229 47.4911 24.5664Z" fill="white"/>
<defs>
<filter id="filter0_i_0_1" x="83" y="5" width="269.925" height="51" filterUnits="userSpaceOnUse" color-interpolation-filters="sRGB">
<feFlood flood-opacity="0" result="BackgroundImageFix"/>
<feBlend mode="normal" in="SourceGraphic" in2="BackgroundImageFix" result="shape"/>
<feColorMatrix in="SourceAlpha" type="matrix" values="0 0 0 0 0 0 0 0 0 0 0 0 0 0 0 0 0 0 127 0" result="hardAlpha"/>
<feOffset dy="4"/>
<feGaussianBlur stdDeviation="2"/>
<feComposite in2="hardAlpha" operator="arithmetic" k2="-1" k3="1"/>
<feColorMatrix type="matrix" values="0 0 0 0 0 0 0 0 0 0 0 0 0 0 0 0 0 0 0.25 0"/>
<feBlend mode="normal" in2="shape" result="effect1_innerShadow_0_1"/>
</filter>
<filter id="filter1_d_0_1" x="80.9666" y="13.016" width="275.959" height="38.3995" filterUnits="userSpaceOnUse" color-interpolation-filters="sRGB">
<feFlood flood-opacity="0" result="BackgroundImageFix"/>
<feColorMatrix in="SourceAlpha" type="matrix" values="0 0 0 0 0 0 0 0 0 0 0 0 0 0 0 0 0 0 127 0" result="hardAlpha"/>
<feOffset dy="4"/>
<feGaussianBlur stdDeviation="2"/>
<feComposite in2="hardAlpha" operator="out"/>
<feColorMatrix type="matrix" values="0 0 0 0 0 0 0 0 0 0 0 0 0 0 0 0 0 0 0.25 0"/>
<feBlend mode="normal" in2="BackgroundImageFix" result="effect1_dropShadow_0_1"/>
<feBlend mode="normal" in="SourceGraphic" in2="effect1_dropShadow_0_1" result="shape"/>
</filter>
</defs>
</svg>
